<svg width="151" height="40" viewBox="0 0 151 40" fill="none" xmlns="http://www.w3.org/2000/svg">
<path d="M9.46406 12.4611H11.5459L16.441 24.4175H16.6097L21.5048 12.4611H23.5866V26.865H21.9549V15.9214H21.8143L17.3131 26.865H15.7376L11.2364 15.9214H11.0958V26.865H9.46406V12.4611Z" fill="#A4454E"/>
<path d="M64.6236 12.4611V14.972H69.0333V26.865H72.0435V14.972H76.4533V12.4611H64.6236Z" fill="#A4454E"/>
<path d="M78.4015 12.4611V26.865H88.1354V24.3542H81.4469V20.915H87.6079V18.4041H81.4469V14.972H88.1073V12.4611H78.4015Z" fill="#A4454E"/>
<path d="M102.576 12.4611V26.865H99.9458L93.6793 17.7993H93.5738V26.865H90.5284V12.4611H93.201L99.4184 21.5198H99.545V12.4611H102.576Z" fill="#A4454E"/>
<path fill-rule="evenodd" clip-rule="evenodd" d="M105.092 26.865H110.198C111.661 26.865 112.918 26.5767 113.968 26C115.023 25.4232 115.832 24.5957 116.395 23.5172C116.962 22.4388 117.246 21.1494 117.246 19.649C117.246 18.1533 116.962 16.8686 116.395 15.7948C115.832 14.7211 115.028 13.8982 113.982 13.3262C112.937 12.7495 111.689 12.4611 110.241 12.4611H105.092V26.865ZM110.072 24.2557H108.138V15.0704H110.079C110.979 15.0704 111.736 15.2298 112.351 15.5487C112.965 15.8675 113.427 16.3645 113.736 17.0397C114.05 17.7149 114.207 18.5847 114.207 19.649C114.207 20.7227 114.05 21.5995 113.736 22.2794C113.427 22.9546 112.962 23.454 112.344 23.7775C111.729 24.0963 110.972 24.2557 110.072 24.2557Z" fill="#A4454E"/>
<path d="M119.502 26.865V12.4611H129.207V14.972H122.547V18.4041H128.708V20.915H122.547V24.3542H129.235V26.865H119.502Z" fill="#A4454E"/>
<path fill-rule="evenodd" clip-rule="evenodd" d="M131.628 12.4611V26.865H134.674V21.759H136.897L139.625 26.865H142.987L139.931 21.2692C139.975 21.2502 140.018 21.2305 140.061 21.2104C140.844 20.8446 141.442 20.3195 141.855 19.6349C142.267 18.9457 142.474 18.1228 142.474 17.1663C142.474 16.2145 142.27 15.3869 141.862 14.6836C141.458 13.9756 140.87 13.4294 140.096 13.0449C139.327 12.6557 138.399 12.4611 137.311 12.4611H131.628ZM134.674 19.3114H136.742C137.323 19.3114 137.806 19.2317 138.19 19.0723C138.575 18.9129 138.861 18.6737 139.048 18.3549C139.241 18.0361 139.337 17.6399 139.337 17.1663C139.337 16.6881 139.241 16.2848 139.048 15.9566C138.861 15.6284 138.573 15.3799 138.183 15.2111C137.799 15.0376 137.314 14.9509 136.727 14.9509H134.674V19.3114Z" fill="#A4454E"/>
<path d="M27.0839 12.4611V26.865H35.8894V25.3177H28.8281V20.4227H35.3267V18.8754H28.8281V14.0084H35.7769V12.4611H27.0839Z" fill="#A4454E"/>
<path d="M50.3425 12.4611V26.865H48.6546L40.8056 15.5557H40.6649V26.865H38.9207V12.4611H40.6086L48.4858 23.7986H48.6264V12.4611H50.3425Z" fill="#A4454E"/>
<path d="M61.4843 12.5061H63.2285V18.6464C63.2285 19.631 62.9964 20.5102 62.5322 21.2838C62.0727 22.0528 61.4233 22.66 60.584 23.1054C59.9313 23.4482 59.1906 23.6577 58.362 23.7339V25.1667H62.5307V26.8102L60.3745 26.865H52.4949V25.1667H56.6636V23.7084C55.9292 23.6165 55.2667 23.4155 54.6762 23.1054C53.8369 22.66 53.1851 22.0528 52.7209 21.2838C52.2614 20.5102 52.0317 19.631 52.0317 18.6464V12.5061H53.7759V18.5057C53.7759 19.209 53.9307 19.835 54.2401 20.3836C54.5496 20.9275 54.9903 21.3565 55.5623 21.6706C55.9386 21.8725 56.3627 22.0086 56.8348 22.0787H58.3072L58.3085 22.0946C58.8277 22.0304 59.2908 21.889 59.6978 21.6706C60.2746 21.3565 60.7153 20.9275 61.0201 20.3836C61.3295 19.835 61.4843 19.209 61.4843 18.5057V12.5061Z" fill="#A4454E"/>
<path fill-rule="evenodd" clip-rule="evenodd" d="M0 2.31595C0 1.03689 1.03689 0 2.31595 0H148.684C149.963 0 151 1.03689 151 2.31595V37.2096C151 38.4887 149.963 39.5256 148.684 39.5256H2.31595C1.03688 39.5256 0 38.4887 0 37.2096V2.31595ZM2.31595 1.54397H148.684C149.11 1.54397 149.456 1.8896 149.456 2.31595V37.2096C149.456 37.636 149.11 37.9816 148.684 37.9816H2.31595C1.8896 37.9816 1.54397 37.636 1.54397 37.2096V2.31595C1.54397 1.8896 1.8896 1.54397 2.31595 1.54397Z" fill="#A4454E"/>
</svg>
